# xmcd
#
# Track frame offsets: 
#        150
#        16304
#        32775
#        45433
#        55840
#        71208
#        84519
#        97582
#        109608
#        125397
#        136528
#        148311
#        160020
#        175298
#        191240
#        204321
#        214817
#        227662
#        238212
#        249763
#        267360
#        280619
#
# Disc length: 4006 seconds
#
# Revision: 0
# Processed by: cddbd v1.5.2PL0 Copyright (c) Steve Scherf et al.
# Submitted via: ExactAudioCopy v0.99pb5
#
DISCID=2d0fa416
DTITLE=James Brown  - The Singles Volume Five_ 1967-1969 [CD1]
DYEAR=1900
DGENRE=
TTITLE0=I Can't Stand Myself
TTITLE1=There Was A Time
TTITLE2=The Soul Of J.B.
TTITLE3=Funky Soul #1
TTITLE4=You've Got To Change Your Mind
TTITLE5=Bringing Up The Guitar
TTITLE6=Gittin' A Little Hipper
TTITLE7=I Got The Feelin'
TTITLE8=If I Ruled The World
TTITLE9=You've Got The Power
TTITLE10=Shhhhhhhh (For A Little While)
TTITLE11=Here I Go
TTITLE12=America Is My Home - Pt 1
TTITLE13=America Is My Home - Pt 2
TTITLE14=Licking Stick - Licking Stick (Part 1)
TTITLE15=Licking Stick - Licking Stick (Part 2)
TTITLE16=Licking Stick - Licking Stick (Part 1) Stereo
TTITLE17=Licking Stick - Licking Stick (Part 2) Stereo
TTITLE18=There Was A Time
TTITLE19=I Guess I'll Have To Cry, Cry, Cry
TTITLE20=Just Plain Funk
TTITLE21=I Guess I'll Have To Cry, Cry, Cry (Alternate Take)
EXTD=
EXTT0=
EXTT1=
EXTT2=
EXTT3=
EXTT4=
EXTT5=
EXTT6=
EXTT7=
EXTT8=
EXTT9=
EXTT10=
EXTT11=
EXTT12=
EXTT13=
EXTT14=
EXTT15=
EXTT16=
EXTT17=
EXTT18=
EXTT19=
EXTT20=
EXTT21=
PLAYORDER=
